<svg width="526" height="330" viewBox="0 0 526 330" fill="none" xmlns="http://www.w3.org/2000/svg">
<g clip-path="url(#clip0_738_2)">
<path d="M0 323.49C0 321.01 0 319.04 0 317.07C0 213.72 0 110.38 0 7.03996C0 2.40663 2.36667 0.0866258 7.1 0.0799591C56.26 0.0799591 105.42 -0.180041 154.58 0.199959C175.05 0.359959 195.39 2.35996 214.53 10.8C236.48 20.48 249.61 37.06 253.75 60.65C256.13 74.21 256.27 87.85 253.05 101.28C248.23 121.44 234.88 134.78 217.37 144.6C215.95 145.4 214.58 146.28 213.2 147.14C213.12 147.19 213.16 147.43 213.16 147.54C219.17 150.23 225.34 152.6 231.14 155.67C250.4 165.84 262.02 182.28 267.22 202.96C272.03 222.1 272.17 241.58 265.78 260.51C257.19 285.98 239.02 302.36 214.69 312.52C195.37 320.59 175 323.44 154.33 323.57C104.34 323.88 54.35 323.67 4.35 323.66C3.21 323.66 2.07 323.57 0 323.48L0 323.49ZM71.45 268.46C77.42 268.46 82.89 268.53 88.35 268.45C112.31 268.11 136.3 268.26 160.23 267.16C172.96 266.58 184.71 261.94 192.43 250.75C201.98 236.91 200.77 221.63 196.7 206.61C192 189.26 175.22 180.68 157.27 180.06C129.98 179.11 102.64 179.62 75.32 179.54C74.07 179.54 72.81 179.84 71.45 180.02V268.46ZM71.59 131.43C99.23 130.9 126.53 131.37 153.67 129.49C171.55 128.25 183.03 118.72 185.74 101.44C186.38 97.37 186.35 93.15 186.26 89.01C186 76.24 180.14 66.91 168.73 61.06C159.11 56.13 148.63 55.49 138.19 55.34C117.72 55.06 97.24 55.26 76.76 55.26C75.13 55.26 73.51 55.26 71.58 55.26V131.43H71.59Z" fill="black"/>
<path d="M356.91 221.96C354.75 246.47 367.45 275.89 399 280.1C414.66 282.19 429.84 281.94 443.84 273.4C451.92 268.47 458.77 262.35 462.99 253.61C463.53 252.49 465.07 251.13 466.16 251.12C483.95 250.97 501.75 251.01 519.55 251.01C519.75 251.8 520.08 252.34 519.95 252.71C512.97 273.13 503.34 291.86 486.17 305.81C471.76 317.53 455.07 324.03 436.99 327.26C419.64 330.36 402.13 330.48 384.9 327.19C345.35 319.65 316.65 298.01 301.35 260.13C292.41 237.99 289.82 214.99 292.28 191.18C294.77 167.07 302.82 145.32 317.71 126.27C333.97 105.47 355.41 92.27 380.91 86.19C404.29 80.61 427.79 81.05 450.69 89.03C475.6 97.71 494.29 114.09 507.2 136.96C521.42 162.15 525.89 189.58 525.1 218.14C525.02 220.97 523.87 222.04 521.17 221.94C519.01 221.86 516.84 221.94 514.67 221.94C464.18 221.94 413.69 221.94 363.2 221.94C361.08 221.94 358.96 221.94 356.9 221.94L356.91 221.96ZM460.33 180.88C458.16 162.66 453.02 145.98 436.31 137.54C416.47 127.53 395.72 127.98 376.75 140.95C362.95 150.38 357.26 164.41 356.22 180.88H460.33Z" fill="black"/>
<path d="M342.7 53.36V22.48H473.53V53.36H342.7Z" fill="black"/>
</g>
<defs>
<clipPath id="clip0_738_2">
<rect width="525.18" height="329.63" fill="white"/>
</clipPath>
</defs>
</svg>
