<svg width="302" height="67" viewBox="0 0 302 67" fill="none" xmlns="http://www.w3.org/2000/svg">
<g clip-path="url(#clip0_671_2)">
<path d="M18.09 66.17C14.68 66.17 11.6 65.52 8.86995 64.21C6.12995 62.9 3.96995 60.94 2.37995 58.32C0.789954 55.7 -4.57764e-05 52.45 -4.57764e-05 48.56C-4.57764e-05 44.91 0.689954 41.9 2.07995 39.51C3.46995 37.13 5.48995 35.23 8.14995 33.8C10.81 32.37 13.9 31.24 17.43 30.41C20.96 29.58 24.87 28.8 29.15 28.09C31.93 27.61 34.17 27.18 35.87 26.78C37.58 26.38 38.82 25.81 39.62 25.05C40.41 24.3 40.81 23.21 40.81 21.78C40.81 19.72 40.05 18.01 38.55 16.66C37.04 15.31 34.74 14.64 31.65 14.64C29.59 14.64 27.64 15.02 25.82 15.77C23.99 16.53 22.47 17.67 21.24 19.22C20.01 20.77 19.2 22.73 18.8 25.11L1.78995 21.06C2.57995 17.25 3.86995 14.02 5.65995 11.36C7.44995 8.69999 9.68995 6.51999 12.38 4.80999C15.08 3.09999 18.11 1.87999 21.48 1.11999C24.85 0.36999 28.44 -0.0100098 32.25 -0.0100098C38.52 -0.0100098 43.67 1.03999 47.72 3.13999C51.77 5.23999 54.76 8.43999 56.71 12.72C58.65 17 59.63 22.44 59.63 29.02V39.14C59.63 41.92 59.67 44.72 59.75 47.53C59.83 50.35 59.93 53.16 60.05 55.98C60.17 58.8 60.35 61.63 60.59 64.49H43.81C43.57 62.35 43.33 59.95 43.1 57.29C42.86 54.63 42.7 51.88 42.62 49.02H40.72C39.85 52.19 38.36 55.09 36.26 57.71C34.16 60.33 31.58 62.39 28.52 63.9C25.46 65.41 21.99 66.16 18.11 66.16L18.09 66.17ZM26.54 52.48C27.97 52.48 29.42 52.22 30.88 51.71C32.35 51.19 33.78 50.44 35.16 49.45C36.55 48.46 37.76 47.19 38.79 45.64C39.82 44.09 40.58 42.33 41.05 40.34L40.81 32.72L43.55 32.96C42.28 33.99 40.79 34.79 39.09 35.34C37.38 35.9 35.6 36.35 33.73 36.71C31.86 37.07 30.02 37.42 28.2 37.78C26.37 38.14 24.75 38.59 23.32 39.15C21.89 39.71 20.76 40.46 19.93 41.41C19.1 42.36 18.68 43.67 18.68 45.34C18.68 47.56 19.41 49.31 20.88 50.58C22.35 51.85 24.23 52.48 26.53 52.48H26.54Z" fill="#BC542B"/>
<path d="M80.33 66.05C76.2 66.05 73.13 65.18 71.11 63.43C69.09 61.69 68.08 58.99 68.08 55.34C68.08 51.69 69.09 48.87 71.11 47.13C73.13 45.39 76.21 44.51 80.33 44.51C84.45 44.51 87.67 45.38 89.73 47.13C91.79 48.88 92.82 51.61 92.82 55.34C92.82 62.48 88.65 66.05 80.32 66.05H80.33Z" fill="#BC542B"/>
<path d="M101.63 64.5V1.67H116.98L117.22 22.02H119.24C120.19 16.94 121.56 12.78 123.35 9.52C125.14 6.27 127.36 3.87 130.01 2.32C132.67 0.77 135.78 0 139.35 0C142.92 0 146.15 0.83 148.57 2.5C150.99 4.17 152.87 6.63 154.22 9.88C155.57 13.13 156.4 17.18 156.72 22.02H158.51C159.54 16.86 161.07 12.66 163.09 9.4C165.11 6.15 167.55 3.77 170.41 2.26C173.27 0.75 176.44 0 179.93 0C183.42 0 186.46 0.68 189.03 2.02C191.61 3.37 193.75 5.35 195.46 7.97C197.17 10.59 198.45 13.88 199.33 17.85C200.2 21.82 200.64 26.42 200.64 31.66V64.51H181.36V33.92C181.36 30.03 181.04 26.8 180.41 24.22C179.77 21.64 178.8 19.7 177.49 18.39C176.18 17.08 174.46 16.43 172.31 16.43C169.93 16.43 167.85 17.3 166.06 19.05C164.27 20.8 162.91 23.26 161.95 26.43C161 29.6 160.52 33.33 160.52 37.62V64.52H141.72V34.05C141.72 30 141.36 26.71 140.65 24.17C139.94 21.63 138.9 19.71 137.56 18.4C136.21 17.09 134.5 16.44 132.44 16.44C130.06 16.44 128.02 17.27 126.31 18.94C124.6 20.61 123.28 23.03 122.32 26.2C121.37 29.37 120.89 33.18 120.89 37.63V64.53H101.61L101.63 64.5Z" fill="#BC542B"/>
<path d="M221.12 66.05C216.99 66.05 213.92 65.18 211.9 63.43C209.88 61.69 208.87 58.99 208.87 55.34C208.87 51.69 209.88 48.87 211.9 47.13C213.92 45.39 217 44.51 221.12 44.51C225.24 44.51 228.46 45.38 230.52 47.13C232.58 48.88 233.61 51.61 233.61 55.34C233.61 62.48 229.44 66.05 221.11 66.05H221.12Z" fill="#BC542B"/>
<path d="M258.85 66.17C255.44 66.17 252.36 65.52 249.63 64.21C246.89 62.9 244.73 60.94 243.14 58.32C241.55 55.7 240.76 52.45 240.76 48.56C240.76 44.91 241.45 41.9 242.84 39.51C244.23 37.13 246.25 35.23 248.91 33.8C251.57 32.37 254.66 31.24 258.19 30.41C261.72 29.58 265.63 28.8 269.91 28.09C272.69 27.61 274.93 27.18 276.63 26.78C278.34 26.38 279.58 25.81 280.38 25.05C281.17 24.3 281.57 23.21 281.57 21.78C281.57 19.72 280.81 18.01 279.31 16.66C277.8 15.31 275.5 14.64 272.41 14.64C270.35 14.64 268.4 15.02 266.58 15.77C264.75 16.53 263.23 17.67 262 19.22C260.77 20.77 259.96 22.73 259.56 25.11L242.54 21.06C243.33 17.25 244.62 14.02 246.41 11.36C248.2 8.69999 250.44 6.51999 253.13 4.80999C255.83 3.09999 258.86 1.87999 262.23 1.11999C265.6 0.36999 269.19 -0.0100098 273 -0.0100098C279.27 -0.0100098 284.42 1.03999 288.47 3.13999C292.52 5.23999 295.51 8.43999 297.46 12.72C299.4 17 300.38 22.44 300.38 29.02V39.14C300.38 41.92 300.42 44.72 300.5 47.53C300.58 50.35 300.68 53.16 300.8 55.98C300.92 58.8 301.1 61.63 301.34 64.49H284.56C284.32 62.35 284.08 59.95 283.85 57.29C283.61 54.63 283.45 51.88 283.37 49.02H281.47C280.6 52.19 279.11 55.09 277.01 57.71C274.91 60.33 272.33 62.39 269.27 63.9C266.21 65.41 262.74 66.16 258.86 66.16L258.85 66.17ZM267.3 52.48C268.73 52.48 270.18 52.22 271.64 51.71C273.11 51.19 274.54 50.44 275.92 49.45C277.31 48.46 278.52 47.19 279.55 45.64C280.58 44.09 281.34 42.33 281.81 40.34L281.57 32.72L284.31 32.96C283.04 33.99 281.55 34.79 279.85 35.34C278.14 35.9 276.36 36.35 274.49 36.71C272.62 37.07 270.78 37.42 268.96 37.78C267.13 38.14 265.51 38.59 264.08 39.15C262.65 39.71 261.52 40.46 260.69 41.41C259.86 42.36 259.44 43.67 259.44 45.34C259.44 47.56 260.17 49.31 261.64 50.58C263.11 51.85 264.99 52.48 267.29 52.48H267.3Z" fill="#BC542B"/>
</g>
<defs>
<clipPath id="clip0_671_2">
<rect width="301.34" height="66.17" fill="white"/>
</clipPath>
</defs>
</svg>
